<svg xmlns="http://www.w3.org/2000/svg" xmlns:xlink="http://www.w3.org/1999/xlink" viewBox="0 0 106 106">
  <defs>
    <linearGradient id="未命名的渐变" x1="-501.431" y1="1254.833" x2="-501.431" y2="1255.833" gradientTransform="matrix(72, 0, 0, -72, 36156.019, 90437.049)" gradientUnits="userSpaceOnUse">
      <stop offset="0" stop-color="#00c875"/>
      <stop offset="1" stop-color="#00e988"/>
    </linearGradient>
  </defs>
  <g id="图层_2" data-name="图层 2">
    <g id="图层_1-2" data-name="图层 1">
      <rect id="矩形" width="106" height="106" style="fill: #fff;fill-opacity: 0"/>
      <g id="亿洽logo备份">
        <path id="Fill-1" d="M53,17A36,36,0,0,0,17,53h0a35.824,35.824,0,0,0,6.93,21.234h0l-5.7,13.554,13.654-5.63A35.82,35.82,0,0,0,53,89h0A36,36,0,0,0,89,53h0A36,36,0,0,0,53,17Z" style="fill-rule: evenodd;fill: url(#未命名的渐变)"/>
        <path id="Fill-3" d="M37.014,64.37a3.942,3.942,0,0,1-1.728-7.486L54.374,47.6l-19.2-10.158a3.941,3.941,0,1,1,3.686-6.966L64.92,44.252a3.944,3.944,0,0,1-.118,7.03L38.736,63.972a3.937,3.937,0,0,1-1.722.4" style="fill: #fff;fill-rule: evenodd"/>
        <path id="Fill-5" d="M68.988,76a3.92,3.92,0,0,1-1.714-.4L55.618,69.96a3.94,3.94,0,0,1-.13-7.028l11.656-6.184a3.941,3.941,0,1,1,3.694,6.962L66.05,66.25,70.706,68.5a3.942,3.942,0,0,1-1.718,7.49" style="fill: #fff;fill-rule: evenodd"/>
      </g>
    </g>
  </g>
</svg>
