<?xml version="1.0" encoding="UTF-8"?>
<svg width="80px" height="80px" viewBox="0 0 80 80" version="1.1" xmlns="http://www.w3.org/2000/svg" xmlns:xlink="http://www.w3.org/1999/xlink">
    <title>Icon/Application</title>
    <defs>
        <filter x="-8.4%" y="-9.7%" width="116.9%" height="119.5%" filterUnits="objectBoundingBox" id="filter-1">
            <feOffset dx="6" dy="6" in="SourceAlpha" result="shadowOffsetOuter1"></feOffset>
            <feGaussianBlur stdDeviation="12" in="shadowOffsetOuter1" result="shadowBlurOuter1"></feGaussianBlur>
            <feColorMatrix values="0 0 0 0 0   0 0 0 0 0.265630307   0 0 0 0 0.154620627  0 0 0 0.117091892 0" type="matrix" in="shadowBlurOuter1" result="shadowMatrixOuter1"></feColorMatrix>
            <feMerge>
                <feMergeNode in="shadowMatrixOuter1"></feMergeNode>
                <feMergeNode in="SourceGraphic"></feMergeNode>
            </feMerge>
        </filter>
        <linearGradient x1="50%" y1="87.4463697%" x2="50%" y2="-17.4141272%" id="linearGradient-2">
            <stop stop-color="#00C875" offset="0%"></stop>
            <stop stop-color="#00E988" offset="100%"></stop>
        </linearGradient>
    </defs>
    <g id="Sign-in" stroke="none" stroke-width="1" fill="none" fill-rule="evenodd">
        <g id="登录-Sign-in" transform="translate(-680.000000, -228.000000)">
            <g id="sign-in" filter="url(#filter-1)" transform="translate(364.000000, 192.000000)">
                <g id="logo" transform="translate(316.000000, 36.000000)">
                    <rect id="矩形" x="0" y="0" width="80" height="80"></rect>
                    <path d="M73.1143066,40.0520015 C73.1143066,58.3082261 58.3132869,73.1145729 40.0517352,73.1145729 C32.8073115,73.1145729 26.1089232,70.782869 20.6608226,66.8295733 L8.12278636,72.0017263 L13.3530056,59.5531866 C9.35229807,54.0901699 6.98863106,47.343837 6.98863106,40.0520015 C6.98863106,21.7904498 21.7896507,6.98943014 40.0517352,6.98943014 C58.3132869,6.98943014 73.1143066,21.7904498 73.1143066,40.0520015" id="Fill-3" fill="url(#linearGradient-2)"></path>
                    <path d="M22.1670277,20.8645337 C21.2321087,22.6315573 21.9070616,24.8226238 23.6746179,25.7564774 L23.6746179,25.7564774 L41.3118249,35.0843587 L23.7822268,43.6190238 C21.9848384,44.4942785 21.2374359,46.6603074 22.1126905,48.4576958 L22.1126905,48.4576958 C22.7391662,49.744741 24.0272768,50.4937416 25.3691919,50.4937416 L25.3691919,50.4937416 C25.9008438,50.4937416 26.4404865,50.3765438 26.9508298,50.1282975 L26.9508298,50.1282975 L50.8916815,38.472974 C52.1174642,37.8757978 52.903755,36.6414916 52.9271946,35.2788006 L52.9271946,35.2788006 C52.9495687,33.9155768 52.2053625,32.6557002 50.9998231,32.0185702 L50.9998231,32.0185702 L27.0589714,19.3574763 C26.518796,19.071407 25.9397322,18.9355641 25.3691919,18.9355641 L25.3691919,18.9355641 C24.0709596,18.9355641 22.8158775,19.6366202 22.1670277,20.8645337" id="Clip-6" fill="#FFFFFF" fill-rule="nonzero"></path>
                    <path d="M54.7344916,61.1682259 C54.2055032,61.1682259 53.6685241,61.0520935 53.1603117,60.8065108 L42.4558887,55.626367 C41.2279752,55.0318544 40.4390207,53.7986137 40.4134503,52.4348572 C40.3878798,51.0716334 41.132086,49.809626 42.3360273,49.1708978 L53.0399176,43.4910651 C54.8074739,42.5540153 56.997475,43.2268373 57.9345249,44.99173 C58.8721075,46.7582208 58.1998181,48.9492874 56.43386,49.8858045 L52.0362781,52.2196394 L56.3134659,54.2892464 C58.1135179,55.160772 58.8667803,57.3252027 57.9957874,59.1241893 C57.3703772,60.4154962 56.0790702,61.1682259 54.7344916,61.1682259" id="Fill-7" fill="#FFFFFF" fill-rule="nonzero"></path>
                </g>
            </g>
        </g>
    </g>
</svg>