<?xml version="1.0" encoding="UTF-8"?>
<svg width="112px" height="112px" viewBox="0 0 112 112" version="1.1" xmlns="http://www.w3.org/2000/svg" xmlns:xlink="http://www.w3.org/1999/xlink">
    <title>LOGO</title>
    <defs>
        <filter x="-26.9%" y="-26.9%" width="153.8%" height="153.8%" filterUnits="objectBoundingBox" id="filter-1">
            <feOffset dx="0" dy="3" in="SourceAlpha" result="shadowOffsetOuter1"></feOffset>
            <feGaussianBlur stdDeviation="4" in="shadowOffsetOuter1" result="shadowBlurOuter1"></feGaussianBlur>
            <feColorMatrix values="0 0 0 0 0   0 0 0 0 0.45124441   0 0 0 0 0.26397798  0 0 0 0.1 0" type="matrix" in="shadowBlurOuter1" result="shadowMatrixOuter1"></feColorMatrix>
            <feMerge>
                <feMergeNode in="shadowMatrixOuter1"></feMergeNode>
                <feMergeNode in="SourceGraphic"></feMergeNode>
            </feMerge>
        </filter>
        <linearGradient x1="50%" y1="100%" x2="50%" y2="0%" id="linearGradient-2">
            <stop stop-color="#00C875" offset="0%"></stop>
            <stop stop-color="#00E988" offset="100%"></stop>
        </linearGradient>
    </defs>
    <g id="页面-1" stroke="none" stroke-width="1" fill="none" fill-rule="evenodd">
        <g id="亿洽_下载页_ios手机端" transform="translate(-132.000000, -220.000000)">
            <g id="LOGO" filter="url(#filter-1)" transform="translate(148.000000, 236.000000)">
                <path d="M64.375,0 C73.0044492,0 80,6.99555078 80,15.625 L80,64.375 C80,73.0044492 73.0044492,80 64.375,80 L15.625,80 C6.99555078,80 0,73.0044492 0,64.375 L0,15.625 C0,6.99555078 6.99555078,0 15.625,0 L64.375,0 Z" id="路径" fill="url(#linearGradient-2)"></path>
                <g id="编组-2" transform="translate(11.250000, 11.250000)" fill="#FFFFFF">
                    <path d="M28.7502316,0 C44.6296796,0 57.5,12.8704241 57.5,28.75 C57.5,44.6249436 44.6296796,57.5 28.7502316,57.5 C22.4507972,57.5 16.6261712,55.4724357 11.8887407,52.0347947 L0.986211925,56.5323094 L5.53418218,45.7075156 C2.05534162,40.9570766 0,35.0907128 0,28.75 C0,12.8704241 12.8703204,0 28.7502316,0 Z M44.3003247,33.0454068 C43.485507,31.5107208 41.5811776,30.9256594 40.0441879,31.7404836 L40.0441879,31.7404836 L30.7365523,36.6794579 C29.6896575,37.2348725 29.0425283,38.3322679 29.0647633,39.5176773 C29.0869982,40.70355 29.7730385,41.7759309 30.8407785,42.2928973 L30.8407785,42.2928973 L40.1488774,46.7973604 C40.5907967,47.0109101 41.0577303,47.1118946 41.5177154,47.1118946 C42.6869023,47.1118946 43.8097665,46.4573485 44.3535959,45.3344753 C45.1109733,43.7701425 44.4559692,41.8880329 42.8907226,41.1301862 L42.8907226,41.1301862 L39.1714668,39.3305318 L42.995412,37.3011146 C44.5310121,36.4867536 45.1156055,34.5814824 44.3003247,33.0454068 Z M15.9829331,10.3879201 C14.854047,10.3879201 13.7626824,10.9975328 13.1984709,12.0652814 C12.4145407,13.5469439 12.9322792,15.371471 14.3483841,16.2280148 L14.5094055,16.3191363 L29.8459506,24.4303199 L14.6029775,31.8517518 C13.095866,32.5856594 12.4377251,34.3632365 13.0750536,35.8906645 L13.1512217,36.0592836 C13.6657134,37.1162749 14.6933842,37.7559433 15.7889785,37.8237552 L15.9829331,37.8297544 C16.3681842,37.8297544 16.7582606,37.7589829 17.1343972,37.61047 L17.3582563,37.5119776 L38.1761756,27.3769355 C39.1793635,26.888199 39.8440264,25.9087 39.9357434,24.8072586 L39.9461689,24.5993994 C39.96448,23.48372 39.3923216,22.4476458 38.4509839,21.8677211 L38.2702108,21.7644226 L17.4522916,10.7547995 C17.0496805,10.5415806 16.6222252,10.4243358 16.1958882,10.3951887 L15.9829331,10.3879201 Z" id="形状结合"></path>
                </g>
            </g>
        </g>
    </g>
</svg>